@startuml
class Category {
    + Id : int <<get>> <<set>>
    + Reference : string <<get>> <<set>>
    + UserId : string? <<get>> <<set>>
    + Name : string <<get>> <<set>>
    + Category()
}
class "ICollection`1"<T> {
}
Category --> "CreatedAt" DateTime
Category --> "Products<Product>" "ICollection`1"
Category --> "Materials<Material>" "ICollection`1"
Category --> "User" User
@enduml
